# xmcd
#
# Track frame offsets:
#	150
#	27397
#	41780
#	63844
#	93353
#	114527
#	143253
#	163780
#	179022
#	199922
#	227244
#
# Disc length: 3320 seconds
#
# Revision: 0
# Processed by: cddbd v1.5.2PL0 Copyright (c) Steve Scherf et al.
# Submitted via: audiograbber 1.83.01
#
DISCID=960cf60b
DTITLE=Various Artist - Shatoborsher Sur Disk 8
DYEAR=1900
DGENRE=
TTITLE0=Suman Chatterjee - Tomake Chai
TTITLE1=Nachiketa - Ei Besh Bhalo Achhi
TTITLE2=Jagjit - Nadite Tufan Ele
TTITLE3=Anjan - Aakash Bhora
TTITLE4=Sriradha - O Majhi Re
TTITLE5=Raghab - Bhorer Aalo Chhariye Porechhe
TTITLE6=Lopamudra - Chhelebelar Brishti
TTITLE7=Tapan Ray - Nisha Lagilo Re
TTITLE8=Tapan Sinha - Chile Kothar Sandhye
TTITLE9=Swagatalaxmi - Pathar Bhenge Ranga Dhulor Path
TTITLE10=Indrani Sen - Ei Madhu Raat
EXTD=
EXTT0=
EXTT1=
EXTT2=
EXTT3=
EXTT4=
EXTT5=
EXTT6=
EXTT7=
EXTT8=
EXTT9=
EXTT10=
PLAYORDER=
